<svg xmlns="http://www.w3.org/2000/svg" xmlns:xlink="http://www.w3.org/1999/xlink" width="920" height="1010" viewBox="0 0 92 101">
  <defs>
    <clipPath id="clip-ejc-logo">
      <rect width="92" height="101"/>
    </clipPath>
  </defs>
  <g id="ejc-logo" clip-path="url(#clip-ejc-logo)">
    <path id="Path_36" data-name="Path 36" d="M28.25,0,42,12.517V66H12.5V5.69Z" transform="translate(-9.5 30)" fill="#1b1464"/>
    <path id="Path_39" data-name="Path 39" d="M30.953-.114l17.14,17.177V89.969H12.5V7.756Z" transform="translate(14.108 6.031)" fill="#1b1464"/>
    <path id="Path_37" data-name="Path 37" d="M0,0,15.667-5.143v14L0,14Z" transform="translate(3 35)" fill="#72c8ec"/>
    <path id="Path_40" data-name="Path 40" d="M0,1.1,18.725-5.143V11.85L0,18.092Z" transform="translate(26.608 11)" fill="#72c8ec"/>
    <path id="Path_41" data-name="Path 41" d="M0,1.1,18.725-5.143V11.85L0,18.092Z" transform="translate(26.608 30)" fill="#72c8ec"/>
    <path id="Path_42" data-name="Path 42" d="M0,1.1,18.725-5.143V11.85L0,18.092Z" transform="translate(26.608 49)" fill="#72c8ec"/>
    <path id="Path_43" data-name="Path 43" d="M0,1.1,18.725-5.143V11.85L0,18.092Z" transform="translate(26.608 68)" fill="#72c8ec"/>
    <path id="Path_49" data-name="Path 49" d="M0,1.1,18.725-5.143V9.083H0Z" transform="translate(26.608 87)" fill="#72c8ec"/>
    <path id="Path_38" data-name="Path 38" d="M0,0,15.667-5.143v14L0,14Z" transform="translate(3 51)" fill="#72c8ec"/>
    <path id="Path_44" data-name="Path 44" d="M0,0,15.667-5.143v14L0,14Z" transform="translate(3 67)" fill="#72c8ec"/>
    <path id="Path_45" data-name="Path 45" d="M0,0,15.667-5.143V13H0Z" transform="translate(3 83)" fill="#72c8ec"/>
    <path id="Path_50" data-name="Path 50" d="M27.833,0,41.5,11V58h-29V5Z" transform="translate(47 38)" fill="#1b1464"/>
    <path id="Path_46" data-name="Path 46" d="M0,0,15.667-5.143v14L0,14Z" transform="translate(59 43)" fill="#72c8ec"/>
    <path id="Path_47" data-name="Path 47" d="M0,0,15.667-5.143v14L0,14Z" transform="translate(59 59)" fill="#72c8ec"/>
    <path id="Path_48" data-name="Path 48" d="M0,0,15.667-5.143v14L0,14Z" transform="translate(59 75)" fill="#72c8ec"/>
    <path id="Path_51" data-name="Path 51" d="M0,0,15.667-5.143V5H0Z" transform="translate(59 91)" fill="#72c8ec"/>
  </g>
</svg>
